2.2Hzlow_3min_grf.mot
version=1
nRows=15
nColumns 19
inDegrees=yes
endheader
time	1_ground_force_vx	1_ground_force_vy	1_ground_force_vz	1_ground_force_px	1_ground_force_py	1_ground_force_pz	1_ground_torque_x	1_ground_torque_y	1_ground_torque_z	2_ground_force_vx	2_ground_force_vy	2_ground_force_vz	2_ground_force_px	2_ground_force_py	2_ground_force_pz	2_ground_torque_x	2_ground_torque_y	2_ground_torque_z
            3.740000	            1.953963	          574.751674	          -54.586785	           -0.169997	            0.006387	           -0.440862	            0.011640	            3.423753	           -0.325169	           -7.956487	          697.545373	          102.590237	           -0.157885	            0.006098	           -0.749457	            0.076773	           -6.730728	           -0.989910
            3.740500	            1.864403	          569.341781	          -54.151187	           -0.169939	            0.006387	           -0.440944	            0.010999	            3.358792	           -0.319461	           -7.649899	          690.368110	          101.578994	           -0.157828	            0.006098	           -0.749346	            0.074226	           -6.698546	           -0.985607
            3.741000	            1.866675	          563.751413	          -53.670738	           -0.169643	            0.006388	           -0.441018	            0.010469	            3.161734	           -0.301006	           -7.487664	          684.293678	          100.994114	           -0.157728	            0.006099	           -0.749450	            0.072542	           -6.629589	           -0.978453
            3.741500	            1.961335	          557.438895	          -52.964325	           -0.169306	            0.006389	           -0.441348	            0.010733	            3.050445	           -0.289834	           -7.415305	          677.115402	          100.029906	           -0.157492	            0.006099	           -0.749278	            0.072633	           -6.632360	           -0.979795
            3.742000	            1.917567	          552.930173	          -52.479116	           -0.169241	            0.006388	           -0.441197	            0.010328	            2.977984	           -0.282643	           -7.112081	          670.859239	           98.928108	           -0.157312	            0.006099	           -0.749166	            0.069828	           -6.586637	           -0.971297
            3.742500	            1.919513	          547.880965	          -52.088059	           -0.169218	            0.006387	           -0.440925	            0.010682	            3.048941	           -0.289868	           -6.622746	          664.971699	           97.921385	           -0.157377	            0.006099	           -0.749129	            0.066037	           -6.630569	           -0.976394
            3.743000	            1.647200	          541.568769	          -51.472448	           -0.168898	            0.006388	           -0.441169	            0.009446	            3.105528	           -0.295159	           -6.789186	          659.080786	           97.196525	           -0.157120	            0.006101	           -0.749339	            0.067660	           -6.568336	           -0.968651
            3.743500	            1.605418	          536.155542	          -50.257409	           -0.168779	            0.006388	           -0.441021	            0.009355	            3.124297	           -0.292861	           -6.345934	          653.008161	           96.423813	           -0.157092	            0.006101	           -0.749366	            0.063415	           -6.525514	           -0.963564
            3.744000	            1.607787	          531.285844	          -49.682156	           -0.168819	            0.006387	           -0.440910	            0.008962	            2.961322	           -0.276922	           -6.039203	          645.829726	           95.741075	           -0.156736	            0.006101	           -0.749189	            0.060238	           -6.441842	           -0.954971
            3.744500	            1.701062	          525.696551	          -49.477063	           -0.168393	            0.006388	           -0.440973	            0.009196	            2.841815	           -0.267463	           -6.115328	          640.860419	           94.878669	           -0.156909	            0.006102	           -0.749410	            0.061803	           -6.476743	           -0.958874
            3.745000	            2.024577	          520.105655	          -48.859838	           -0.168075	            0.006387	           -0.440821	            0.010853	            2.787995	           -0.261910	           -5.905784	          634.603750	           93.823831	           -0.156652	            0.006102	           -0.749263	            0.059867	           -6.432956	           -0.951089
            3.745500	            1.980680	          515.056438	          -48.468668	           -0.168130	            0.006387	           -0.440856	            0.010732	            2.790852	           -0.262629	           -5.785184	          627.056738	           92.999066	           -0.156315	            0.006103	           -0.749146	            0.059083	           -6.404009	           -0.949781
            3.746000	            1.799778	          508.384441	          -47.992393	           -0.167876	            0.006389	           -0.441332	            0.009933	            2.805675	           -0.264861	           -5.436981	          621.352223	           92.180787	           -0.156373	            0.006103	           -0.749160	            0.056111	           -6.412538	           -0.951333
            3.746500	            1.756465	          503.874810	          -47.323769	           -0.167662	            0.006387	           -0.440666	            0.009867	            2.830474	           -0.265837	           -5.269428	          613.804665	           91.590651	           -0.156020	            0.006103	           -0.748826	            0.054834	           -6.387311	           -0.953101
            3.747000	            1.713578	          498.283254	          -46.568062	           -0.167760	            0.006388	           -0.441059	            0.009741	            2.832595	           -0.264726	           -5.106775	          607.548161	           90.441977	           -0.155950	            0.006104	           -0.748974	            0.053748	           -6.394301	           -0.951881
